<svg xmlns="http://www.w3.org/2000/svg" viewBox="0 0 24 24" fill="#2146e9" x="0px" y="0px"><path d="m12,2.5C6.76172,2.5,2.5,6.76172,2.5,12s4.26172,9.5,9.5,9.5,9.5-4.26172,9.5-9.5S17.23828,2.5,12,2.5Zm-3.5,9.5c0-1.92969,1.57031-3.5,3.5-3.5s3.5,1.57031,3.5,3.5-1.57031,3.5-3.5,3.5-3.5-1.57031-3.5-3.5Zm.66364-3.4646l-2.80078-2.87946c1.38495-1.23206,3.17065-2.01538,5.13715-2.13062v4.02521c-.88312.09937-1.68286.44879-2.33636.98486Zm-5.66364,3.4646c0-2.16351.81952-4.13477,2.1557-5.6369l2.80823,2.88708c-.59479.76294-.96393,1.70966-.96393,2.74982,0,1.06042.38391,2.02332.99976,2.79321l-2.84387,2.84387c-1.33624-1.50214-2.15588-3.47345-2.15588-5.63708Zm8.5,8.5c-2.16364,0-4.13495-.81964-5.63708-2.15588l2.84387-2.84387c.7699.61584,1.73279.99976,2.79321.99976,2.48145,0,4.5-2.01855,4.5-4.5,0-2.31024-1.75616-4.19702-4-4.44946V3.52533c4.45349.26105,8,3.95691,8,8.47467,0,4.68652-3.81348,8.5-8.5,8.5Z"/><text x="0" y="39" fill="#2146e9" font-size="5px" font-weight="bold" font-family="'Helvetica Neue', Helvetica, Arial-Unicode, Arial, Sans-serif">Created by Monika Gamaro</text><text x="0" y="44" fill="#2146e9" font-size="5px" font-weight="bold" font-family="'Helvetica Neue', Helvetica, Arial-Unicode, Arial, Sans-serif">from the Noun Project</text></svg>